# xmcd
#
# Track frame offsets: 
#        150
#        13083
#        28030
#        37015
#        55273
#        71815
#        84340
#        96168
#        113210
#        122800
#        135590
#        152090
#
# Disc length: 2173 seconds
#
# Revision: 0
# Processed by: cddbd v1.5.2PL0 Copyright (c) Steve Scherf et al.
# Submitted via: ExactAudioCopy v0.95b4
#
DISCID=a0087b0c
DTITLE=Front Range - The Road Home
DYEAR=1990
DGENRE=Bluegrass
TTITLE0=Julia
TTITLE1=High Mountain Meadow
TTITLE2=He Is Risen
TTITLE3=Fire In The Canyon
TTITLE4=Snowblind
TTITLE5=Stranger
TTITLE6=Absence Makes The Heart Grow Fonder
TTITLE7=The Road Home
TTITLE8=That's What Lies Will Do
TTITLE9=Nightime Blues
TTITLE10=Delaware
TTITLE11=The Only One I Love
EXTD=
EXTT0=
EXTT1=
EXTT2=
EXTT3=
EXTT4=
EXTT5=
EXTT6=
EXTT7=
EXTT8=
EXTT9=
EXTT10=
EXTT11=
PLAYORDER=
